<svg height="512pt" viewBox="0 -76 512 512" width="512pt" xmlns="http://www.w3.org/2000/svg"><path d="m512 240-26.398438 14.398438 26.398438 15.601562v15c0 24.898438-20.097656 45-45 45h-422c-24.902344 0-45-20.101562-45-45v-45l16.199219-15-16.199219-15v-30l16.800781-36.902344-16.800781-83.097656v-15c0-24.902344 20.097656-45 45-45h373.398438c17.101562 0 32.699218 9.601562 40.199218 24.898438l17.703125 35.101562-51.300781 87 87 63zm0 0" fill="#e63950"/><path d="m512 240-26.398438 14.398438 26.398438 15.601562v15c0 24.898438-20.097656 45-45 45h-272v-330h223.398438c17.101562 0 32.699218 9.601562 40.199218 24.898438l17.703125 35.101562-51.300781 87 87 63zm0 0" fill="#cc2e43"/><path d="m512 180v30h-111l-30-30h-371v-120h476.300781l15 30-6.300781 51.898438zm0 0" fill="#cc2e43"/><path d="m512 180v30h-111l-30-30h-176v-120h281.300781l15 30-6.300781 51.898438zm0 0" fill="#ae2538"/><path d="m512 240v30h-45c-8.402344 0-15-6.601562-15-15 0-8.402344 6.597656-15 15-15zm0 0" fill="#c6e2e7"/><path d="m330 225c0 8.398438-6.597656 15-15 15h-315v-30h315c8.402344 0 15 6.597656 15 15zm0 0" fill="#ffa78f"/><path d="m105 360c-24.8125 0-45-20.1875-45-45s20.1875-45 45-45 45 20.1875 45 45-20.1875 45-45 45zm0 0" fill="#4a696f"/><path d="m195 270c-24.902344 0-45 20.097656-45 45 0 24.898438 20.097656 45 45 45s45-20.101562 45-45c0-24.902344-20.097656-45-45-45zm0 0" fill="#4a696f"/><path d="m407 360c-24.8125 0-45-20.1875-45-45s20.1875-45 45-45 45 20.1875 45 45-20.1875 45-45 45zm0 0" fill="#384949"/><path d="m510.5 128.398438c.898438 2.101562 1.5 4.199218 1.5 6.601562v45h-98.699219l-21.300781-21.300781v-68.699219h99.300781zm0 0" fill="#76e2f8"/><path d="m30 90h60v60h-60zm0 0" fill="#a8ebfa"/><path d="m120 90h60v60h-60zm0 0" fill="#a8ebfa"/><path d="m210 90h60v60h-60zm0 0" fill="#76e2f8"/><path d="m300 90h62v60h-62zm0 0" fill="#76e2f8"/><path d="m330 225c0 8.398438-6.597656 15-15 15h-120v-30h120c8.402344 0 15 6.597656 15 15zm0 0" fill="#f89580"/><path d="m240 315c0 24.898438-20.097656 45-45 45v-90c24.902344 0 45 20.097656 45 45zm0 0" fill="#384949"/><path d="m105 330c-8.277344 0-15-6.722656-15-15s6.722656-15 15-15 15 6.722656 15 15-6.722656 15-15 15zm0 0" fill="#deecf1"/><path d="m210 315c0 8.398438-6.597656 15-15 15s-15-6.601562-15-15c0-8.402344 6.597656-15 15-15s15 6.597656 15 15zm0 0" fill="#deecf1"/><g fill="#c6e2e7"><path d="m407 330c-8.277344 0-15-6.722656-15-15s6.722656-15 15-15 15 6.722656 15 15-6.722656 15-15 15zm0 0"/><path d="m210 315c0 8.398438-6.597656 15-15 15v-30c8.402344 0 15 6.597656 15 15zm0 0"/></g></svg>