<?xml version="1.0" encoding="iso-8859-1"?>
<!-- Generator: Adobe Illustrator 19.0.0, SVG Export Plug-In . SVG Version: 6.00 Build 0)  -->
<svg version="1.1" id="Layer_1" xmlns="http://www.w3.org/2000/svg" xmlns:xlink="http://www.w3.org/1999/xlink" x="0px" y="0px"
	 viewBox="0 0 508 508" style="enable-background:new 0 0 508 508;" xml:space="preserve">
<circle style="fill:#FFD15C;" cx="254" cy="254" r="254"/>
<circle style="fill:#F8B64C;" cx="254" cy="254" r="193.2"/>
<path style="fill:#FFD15C;" d="M222.3,332.1c-5.5-7.3-9.3-16-11.3-26l-49.3,5.3c3.8,24.8,12.5,44,26,57.6
	c13.6,13.6,31.3,21.7,53,24.3V418h27.4v-25.7c24.5-3.5,43.7-13.1,57.5-28.7s20.7-34.8,20.7-57.6c0-20.4-5.5-37.1-16.4-50.1
	s-31.5-23.6-61.7-31.8v-73.8c12.2,5.3,19.8,15.4,22.6,30.2l47.8-6.2c-3.3-18.9-10.8-33.9-22.6-45.2c-11.8-11.3-27.7-18.1-47.8-20.5
	V90h-27.4v18.7c-21.6,2.1-39,10.2-52,24.3c-13,14-19.5,31.4-19.5,52c0,20.4,5.8,37.7,17.3,52s29.6,24.9,54.3,32v79
	C234,344.7,227.8,339.4,222.3,332.1z M268.2,277c11.3,3.3,19.5,8,24.4,14.1c5,6.1,7.5,13.4,7.5,21.8c0,9.4-3,17.6-8.9,24.6
	s-13.6,11.4-23,13.1V277z M222.5,201.2c-4-5.7-6-11.9-6-18.6c0-7.3,2.2-14,6.6-20c4.4-6,10.3-10.3,17.7-12.8v65.3
	C232.6,211.6,226.5,207,222.5,201.2z"/>
<g>
</g>
<g>
</g>
<g>
</g>
<g>
</g>
<g>
</g>
<g>
</g>
<g>
</g>
<g>
</g>
<g>
</g>
<g>
</g>
<g>
</g>
<g>
</g>
<g>
</g>
<g>
</g>
<g>
</g>
</svg>
