<?xml version="1.0" encoding="utf-8"?>
<!-- Generator: Adobe Illustrator 21.0.0, SVG Export Plug-In . SVG Version: 6.00 Build 0)  -->
<svg xmlns="http://www.w3.org/2000/svg" xmlns:xlink="http://www.w3.org/1999/xlink" version="1.1" id="Layer_1" x="0px" y="0px" viewBox="0 0 64 64" style="enable-background:new 0 0 64 64;" xml:space="preserve" width="512" height="512">
<style type="text/css">
	.st0{fill:#305C1E;}
	.st1{fill:#BD0000;}
</style>
<g>
	<path class="st0" d="M57.7,22.8L61,20l-5.1-1.7c-2.2-0.7-4.6-0.5-6.6,0.7l0.9,5.4C52.8,25.2,55.6,24.6,57.7,22.8z"/>
	<path class="st0" d="M48.8,17.3C53.2,14.8,56,10.1,56,5V3c-6.3,0-11.8,4.2-13.5,10.3"/>
	<path class="st0" d="M42,45c0,7.7,6.3,14,14,14v-2c0-7-5.2-12.9-12.2-13.9"/>
	<path class="st0" d="M45.4,40.2l3.2,2.4c2.1,1.5,4.8,2,7.3,1.1L61,42l-3.3-2.8c-2.3-1.9-5.4-2.5-8.2-1.3l-3.6,1.5"/>
	<path class="st1" d="M50.8,28l-1.6-9.6c-0.1-0.9-0.7-1.7-1.5-2.1l-4.9-2.8c-0.6-0.3-1.3-0.5-1.9-0.4L35,14l-4-1l-3.8-3   c-0.7-0.6-1.8-0.6-2.5,0l-3.1,2.5c-0.4,0.3-0.9,0.5-1.5,0.4l-6-0.7c-1.1-0.1-2.1,0.7-2.2,1.8c0,0.1,0,0.1,0,0.2V15l-5,6.4   c-1.2,1.6-1.4,3.8-0.4,5.5l0.8,1.4L7,28l-2.1,2.6c-1,1.3-0.8,3.2,0.5,4.2c0,0,0,0,0.1,0.1L11,39c0,0-3,9,7,13s14-3,14-3l0,0   c0.1,0,0.2,0,0.2,0l5.8-0.8c0.6-0.1,1.2-0.4,1.7-0.8l3.9-3.9c0.2-0.2,0.4-0.5,0.6-0.8l6.3-12.7C50.8,29.3,50.9,28.7,50.8,28z"/>
	<path d="M22.9,27.9l1.8,1.3c0.7,0.5,1.6,0.7,2.4,0.5l7.8-1.6c1.2-0.2,2.2-1.2,2.4-2.5l0.5-3.3c0.2-1.2-0.4-2.4-1.4-3.1l-3.4-2   c-0.5-0.3-1-0.4-1.5-0.4h-2.6c-0.8,0-1.6,0.3-2.1,0.9l-1.4,1.4c-0.3,0.3-0.4,0.8-0.2,1.2l0.5,1l-1.3,0.4c-0.6,0.2-1.2,0.6-1.5,1.2   l-0.6,0.9C21.3,25.2,21.6,27,22.9,27.9z M23.9,25l0.6-0.9c0.1-0.2,0.3-0.3,0.5-0.4l1.1-0.4c0.2,1.5,1.9,2.6,4,2.6c2.2,0,4-1.3,4-3   s-1.8-3-4-3c-0.9,0-1.8,0.2-2.5,0.7l-0.2-0.5l0.9-0.9c0.2-0.2,0.4-0.3,0.7-0.3h2.6c0.2,0,0.4,0,0.5,0.1l3.4,2   c0.4,0.2,0.5,0.6,0.5,1l-0.5,3.3c-0.1,0.4-0.4,0.7-0.8,0.8l-7.8,1.6c-0.3,0.1-0.6,0-0.8-0.2l-1.8-1.3C23.7,26,23.6,25.4,23.9,25z    M28,23c0-0.4,0.8-1,2-1s2,0.6,2,1s-0.8,1-2,1S28,23.4,28,23z"/>
	<rect x="45" y="46.6" transform="matrix(0.7071 -0.7071 0.7071 0.7071 -20.4682 46.5859)" width="2" height="2.8"/>
	<path d="M4.9,35.7l5,3.7c-0.5,2.4-1.3,9.9,7.8,13.5c1.9,0.8,4,1.3,6.1,1.3c3.5,0.1,6.7-1.5,8.8-4.3l5.6-0.8   c0.9-0.1,1.6-0.5,2.3-1.1l0.8-0.8C42.3,54.6,48.6,60,56,60c0.6,0,1-0.4,1-1v-2c0-5-2.5-9.7-6.7-12.5c1.9,0.7,4,0.8,5.9,0.1l5.1-1.7   c0.5-0.2,0.8-0.7,0.6-1.3c-0.1-0.2-0.2-0.3-0.3-0.4l-3.3-2.8c-2.5-2.2-6.1-2.8-9.2-1.5l-1.2,0.5l3.5-7c0.4-0.8,0.5-1.6,0.4-2.4   l-0.4-2.2c0.3,0,0.7,0.1,1.1,0.1c2.1,0,4.2-0.8,5.8-2.1l3.3-2.8c0.4-0.4,0.5-1,0.1-1.4c-0.1-0.1-0.3-0.2-0.4-0.3l-5.1-1.7   c-1.9-0.6-4-0.6-5.9,0.1C54.5,14.7,57,10,57,5V3c0-0.6-0.4-1-1-1c-6.4,0-12.1,4.1-14.2,10.2c-0.3,0-0.7,0-1,0L34.9,13   c-1.2-0.6-2.4-1-3.7-1.1l-3.4-2.7c-1.1-0.9-2.7-0.9-3.7,0L21,11.7c-0.2,0.2-0.5,0.2-0.7,0.2l-6-0.7c-1.6-0.2-3.1,1-3.3,2.6   c0,0.1,0,0.2,0,0.3v0.4l-4.7,6.1c-1.5,1.9-1.7,4.5-0.5,6.6l0.2,0.3L4.2,30c-1.4,1.7-1.1,4.2,0.6,5.6C4.8,35.6,4.8,35.6,4.9,35.7   L4.9,35.7z M18.4,51.1c-6.8-2.7-7-7.8-6.7-10.3c0.4,0.2,0.8,0.4,1.2,0.5c3.7,1.2,6.3,2,8.2,2.5v1.6c0,1.3,0.7,2.6,1.8,3.3l0.9,0.6   c0.7,0.4,1.4,0.7,2.2,0.7h3.9C28.1,51.6,24.4,53.5,18.4,51.1L18.4,51.1z M55,56.3l-5.2-6l-1.5,1.3l5.3,6.1   c-6-1.1-10.4-6.3-10.6-12.4l1.2-1.2C50.2,45.2,54.6,50.3,55,56.3L55,56.3z M49.9,38.7c2.4-1,5.2-0.5,7.2,1.2l2,1.7l-3.4,1.1   c-2.2,0.7-4.5,0.3-6.4-1L46.9,40L49.9,38.7z M47.9,43.2c-0.8-0.3-1.6-0.6-2.5-0.8l0.4-0.7L47.9,43.2z M55.6,19.3l3.4,1.1l-2,1.7   c-1.6,1.4-3.8,2-5.9,1.5l-0.7-4C52.1,18.8,53.9,18.7,55.6,19.3z M53.6,4.2l-5.3,6.1l1.5,1.3l5.2-6c-0.2,4.2-2.5,8-6,10.3   c-0.2-0.2-0.5-0.4-0.7-0.5l-4.5-2.6C45.2,8.4,49,5.1,53.6,4.2z M41.1,14.1c0.4-0.1,0.9,0,1.3,0.2l4.9,2.8c0.5,0.3,0.9,0.8,1,1.4   l1.6,9.6c0.1,0.4,0,0.8-0.2,1.2l-6.3,12.7c-0.1,0.2-0.2,0.4-0.4,0.5L39,46.6c-0.3,0.3-0.7,0.5-1.1,0.6L32.1,48c-0.1,0-0.2,0-0.3,0   h-5.9c-0.4,0-0.8-0.1-1.1-0.3l-0.9-0.6c-0.6-0.4-0.9-1-0.9-1.7v-1c1,0.3,2,0.5,3,0.6c2.1,0,5.3-2.9,6.4-4h1.9   c0.6,0,1.3-0.2,1.8-0.6l6.9-5.1c0.6-0.4,1-1.1,1.1-1.8l0.8-4.1c0,0,0-0.1,0-0.1l1.6-4.9c0.3-0.9,0.2-1.9-0.4-2.7l-3.8-5.3   C41.9,15.5,40.9,15,40,15h-2.6c-0.1-0.1-0.2-0.2-0.3-0.3L41.1,14.1z M11.9,20.7c0-0.2,0.1-0.4,0.1-0.7c0.7-1.1,1.5-2.2,2.5-3.1   c0.3-0.4,0.9-0.4,1.3-0.1l1.5,1.1c-0.9,0.8-1.3,1.9-1.3,3c0,4.3,3.1,8.4,3.2,8.6c0.1,0.1,0.1,0.1,0.2,0.2l5,4   c0.1,0,0.1,0.1,0.2,0.1C24.7,34,28.8,36,32,36c2.7,0,4.1-2.5,4.7-3.8c1.1-0.3,2.1-1,2.6-2l2.6-4.6C42,25.3,42,25,42,24.7   c-0.8-2.7-1.9-5.3-3.2-7.7H40c0.3,0,0.6,0.2,0.8,0.4l3.8,5.3c0.2,0.3,0.2,0.6,0.1,0.9l-1.6,4.9c0,0.1-0.1,0.2-0.1,0.4l-0.8,4.1   c0,0.2-0.2,0.5-0.4,0.6l-4.8,3.6c0.6-1,1-2.1,1.1-3.3h-2c0,0-0.1,3.3-4.2,5h-0.6c-2-0.4-8.5-3.6-14.6-8.8   C11,25.4,11.6,22.1,11.9,20.7z M22,22c0-2.4,1.7-4.5,4.1-5l0.1,0c0.3-0.1,0.5-0.2,0.6-0.4l1.8-2.6c1.2-0.1,4.6-0.3,6.7,1.8   c2.4,2.4,4.2,7.7,4.6,9.2l-2.4,4.3c-0.6,1.1-2,1.5-3,0.9c-0.3-0.2-0.5-0.4-0.7-0.6l-1.6,1.2c0.6,0.8,1.4,1.3,2.3,1.5   c-0.4,1-1.4,1.7-2.5,1.9c-2.5,0-5.9-1.6-6.5-1.9l-4.8-3.8c-0.4-0.6-2.7-4-2.7-7.3c-0.1-0.6,0.2-1.2,0.6-1.5   c0.6-0.4,1.4-0.6,2.1-0.6c-0.5,1-0.7,2-0.7,3.1H22z M13.3,13.5c0.2-0.2,0.5-0.3,0.8-0.2l6,0.7c0.8,0.1,1.6-0.1,2.2-0.6l3.1-2.5   c0.4-0.3,0.9-0.3,1.3,0l1.5,1.2c-0.2,0-0.3,0-0.3,0.1c-0.3,0.1-0.5,0.2-0.6,0.4l-1.8,2.7c-1.3,0.3-2.4,1-3.3,1.9   c-0.9-0.2-1.8-0.2-2.7,0L17,15.3c-1.2-0.9-2.9-0.8-4,0.3l0,0v-1.4C13,13.9,13.1,13.7,13.3,13.5z M7.8,22l3.2-4.1v0   c-0.9,1.2-1,1.7-1,2c0,0.1,0,0.2-0.1,0.4c-0.3,1.6-1.1,5.8,5.4,11.4c4.8,4.1,10.9,7.7,14.5,8.9C28.3,41.9,26.7,43,26,43   c-0.3,0-2.2-0.3-12.6-3.6c-1.9-0.6-3.1-2.5-2.7-4.5c0.2-1.3,0-2.7-0.7-3.9l-2.5-4.6C6.7,25,6.8,23.3,7.8,22L7.8,22z M5.7,31.2   L7,29.6L8.3,32c0.4,0.8,0.6,1.7,0.5,2.6c-0.1,0.5-0.1,1,0,1.4l-2.6-2C5.2,33.4,5,32.1,5.7,31.2C5.7,31.2,5.7,31.2,5.7,31.2z"/>
</g>
</svg>
