<svg height="512pt" viewBox="0 0 512 512" width="512pt" xmlns="http://www.w3.org/2000/svg"><path d="m95.332031 190.667969c-3.835937 0-7.675781-1.464844-10.605469-4.394531-5.855468-5.859376-5.855468-15.355469 0-21.214844l120.5-120.5c5.859376-5.855469 15.355469-5.855469 21.214844 0 5.855469 5.859375 5.855469 15.355468 0 21.214844l-120.5 120.5c-2.929687 2.929687-6.769531 4.394531-10.609375 4.394531zm0 0" fill="#ff9f00"/><path d="m416.667969 190.667969c-3.839844 0-7.679688-1.464844-10.609375-4.394531l-120.5-120.5c-5.855469-5.859376-5.855469-15.355469 0-21.214844 5.859375-5.855469 15.355468-5.855469 21.214844 0l120.5 120.5c5.855468 5.859375 5.855468 15.355468 0 21.214844-2.925782 2.929687-6.765626 4.394531-10.605469 4.394531zm0 0" fill="#e47500"/><path d="m456.835938 160.667969h-401.667969c-30.421875 0-55.167969 24.746093-55.167969 55.167969v241c0 30.417968 24.746094 55.164062 55.167969 55.164062h401.667969c30.417968 0 55.164062-24.746094 55.164062-55.164062v-241c0-30.421876-24.746094-55.167969-55.164062-55.167969zm0 0" fill="#ff4949"/><path d="m456.835938 160.667969h-200.835938v351.332031h200.835938c30.417968 0 55.164062-24.746094 55.164062-55.164062v-241c0-30.421876-24.746094-55.167969-55.164062-55.167969zm0 0" fill="#ff2323"/><path d="m113.40625 306.769531c0-7.710937 6.589844-12.371093 18.160156-12.371093 13.496094 0 17.191406 6.105468 22.171875 6.105468 5.785157 0 8.355469-7.390625 8.355469-11.085937 0-10.609375-21.050781-12.855469-30.527344-12.855469-18.476562 0-39.046875 8.195312-39.046875 32.136719 0 38.078125 51.578125 30.6875 51.578125 54.789062 0 9.640625-8.351562 13.980469-17.996094 13.980469-16.386718 0-20.726562-12.375-27.3125-12.375-4.980468 0-9.160156 6.75-9.160156 11.25 0 9.316406 16.070313 19.921875 37.117188 19.921875 22.171875 0 38.242187-11.886719 38.242187-34.863281 0-41.621094-51.582031-34.710938-51.582031-54.632813zm0 0" fill="#fef4f5"/><path d="m229.25 283.472656c-1.445312-4.820312-7.390625-7.070312-13.5-7.070312-5.941406 0-11.886719 2.25-13.332031 7.070312l-31.011719 101.0625c-.160156.644532-.320312 1.285156-.320312 1.609375 0 5.140625 7.550781 8.675781 13.175781 8.675781 3.53125 0 6.265625-1.125 7.070312-4.175781l6.101563-21.371093h36.796875l6.105469 21.371093c.808593 3.050781 3.535156 4.175781 7.070312 4.175781 5.625 0 13.175781-3.699218 13.175781-8.675781 0-.484375-.160156-.964843-.320312-1.609375zm-27.476562 69.414063 13.980468-49.332031 13.976563 49.332031zm0 0" fill="#fef4f5"/><path d="m331.757812 376.503906h-39.207031v-92.710937c0-4.5-5.300781-6.429688-10.445312-6.429688-5.296875 0-10.441407 1.929688-10.441407 6.429688v104.441406c0 4.335937 4.5 6.585937 9.160157 6.585937h50.933593c4.175782 0 6.265626-4.660156 6.265626-9.160156 0-4.65625-2.089844-9.15625-6.265626-9.15625zm0 0" fill="#d5eded"/><path d="m415.78125 376.503906h-45.46875v-32.296875h24.421875c4.5 0 6.585937-4.339843 6.585937-8.03125 0-4.339843-2.410156-8.359375-6.585937-8.359375h-24.421875v-32.132812h45.46875c4.179688 0 6.589844-4.339844 6.589844-9.320313 0-4.335937-2.089844-8.996093-6.589844-8.996093h-57.199219c-4.660156 0-9.15625 2.246093-9.15625 6.585937v104.28125c0 4.335937 4.496094 6.585937 9.15625 6.585937h57.199219c4.5 0 6.589844-4.660156 6.589844-9 0-4.980468-2.410156-9.316406-6.589844-9.316406zm0 0" fill="#d5eded"/><path d="m256 0c-30.417969 0-55.167969 24.746094-55.167969 55.167969 0 30.417969 24.75 55.167969 55.167969 55.167969s55.167969-24.75 55.167969-55.167969c0-30.421875-24.746094-55.167969-55.167969-55.167969zm0 0" fill="#a8ebfa"/><path d="m311.167969 55.167969c0-30.421875-24.746094-55.167969-55.167969-55.167969v110.335938c30.421875 0 55.167969-24.75 55.167969-55.167969zm0 0" fill="#76e2f8"/></svg>