<?xml version="1.0" encoding="iso-8859-1"?>
<!-- Generator: Adobe Illustrator 19.0.0, SVG Export Plug-In . SVG Version: 6.00 Build 0)  -->
<svg version="1.1" id="Capa_1" xmlns="http://www.w3.org/2000/svg" xmlns:xlink="http://www.w3.org/1999/xlink" x="0px" y="0px"
	 viewBox="0 0 513.066 513.066" style="enable-background:new 0 0 513.066 513.066;" xml:space="preserve">
<circle style="fill:#54C0EB;" cx="256" cy="256.531" r="256"/>
<g>
	<path style="fill:#84DBFF;" d="M512,254.401c-5.333,7.467-10.667,14.933-16,22.4c-19.2,29.867-26.667,65.067-38.4,98.133
		c-3.2,9.6-10.667,24.533-19.2,19.2c-25.6-18.133-1.067-67.2-19.2-94.933c-5.333-10.667-13.867-20.267-24.533-24.533
		c-21.333-9.6-45.867,0-68.267-6.4c-19.2-6.4-32-26.667-33.067-45.867c-1.067-20.267,9.6-39.467,24.533-53.333
		c13.867-11.733,34.133-19.2,52.267-12.8c6.4,2.133,12.8,6.4,20.267,8.533c17.067,5.333,36.267-2.133,52.267-9.6
		c7.467-3.2,16-8.533,13.867-17.067c-1.067-5.333-7.467-8.533-13.867-8.533c-10.667-1.067-21.333,2.133-33.067,3.2
		c-10.667,1.067-23.467,0-30.933-7.467c-4.267-4.267-9.6-11.733-16-9.6c-2.133,1.067-4.267,3.2-6.4,5.333
		c-9.6,10.667-26.667,9.6-40.533,7.467c-2.133,0-4.267-1.067-6.4-2.133c-3.2-3.2,0-8.533,3.2-12.8c9.6-9.6,19.2-19.2,25.6-30.933
		l0,0c8.533-17.067-3.2-36.267-22.4-37.333c-10.667-1.067-20.267-3.2-27.733-10.667c-8.533-7.467-12.8-20.267-9.6-32
		C409.6,14.401,510.933,122.134,512,254.401z"/>
	<path style="fill:#84DBFF;" d="M200.533,75.201c-8.533,20.267-32,29.867-48,45.867c-10.667,10.667-19.2,25.6-25.6,38.4
		l-2.133,4.267c-9.6,17.067-28.8,22.4-46.933,18.133c-3.2-1.067-6.4-1.067-9.6-1.067c-13.867,0-28.8,10.667-30.933,24.533
		c0,3.2,0,6.4,1.067,9.6c2.133,6.4,9.6,9.6,16,9.6l0,0c11.733,0,22.4,6.4,26.667,18.133c0,0,0,0,0,1.067
		c4.267,13.867-11.733,25.6-23.467,16c-13.867-13.867-25.6-29.867-32-48c-5.334-14.933-8.534-30.933-8.534-46.933l0,0
		C45.867,88.001,112,29.334,192,9.068c2.133,6.4,5.333,12.8,7.467,19.2C203.733,43.201,206.933,60.268,200.533,75.201z"/>
	<path style="fill:#84DBFF;" d="M269.867,340.801c-4.267,6.4-9.6,10.667-14.933,16c-27.733,30.933-24.533,83.2-57.6,107.733
		c-5.333,4.267-12.8,8.533-14.933,14.933c-1.067,3.2,0,6.4,0,9.6c1.067,4.267,1.067,8.533,2.133,13.867
		c-10.667-3.2-20.267-6.4-29.867-10.667c-5.333-10.667-12.8-20.267-14.933-33.067c-3.2-16,3.2-34.133-1.067-50.133
		c-6.4-28.8-40.533-43.733-50.133-71.467c-6.4-17.067-1.067-37.333,7.467-54.4c5.333-10.667,12.8-21.333,23.467-24.533
		c8.533-3.2,17.067-1.067,25.6,1.067c34.133,11.733,59.733,48,96,51.2c11.733,1.067,25.6,0,30.933,9.6
		C276.267,325.868,274.133,334.401,269.867,340.801z"/>
</g>
<path style="fill:#F2F2F2;" d="M409.6,113.601c12.8-8.533,24.533-18.133,36.267-28.8c-4.267-4.267-7.467-8.533-11.733-11.733
	c-9.6,9.6-20.267,18.133-32,25.6C369.067,32.534,315.733,0.534,256,0.534s-113.067,32-146.133,97.067
	c-11.733-7.467-21.333-16-32-25.6c-4.267,4.267-7.467,8.533-11.734,12.8c11.734,10.667,23.467,20.267,36.267,28.8
	c-17.067,39.467-26.667,85.333-27.733,134.4H0c0,3.2,0,5.333,0,8.533c0,3.2,0,5.333,0,8.533h74.667
	c1.067,49.067,11.733,96,27.733,134.4c-12.8,8.534-24.533,18.134-36.267,28.801c4.267,4.266,7.467,8.533,11.734,11.733
	c9.6-9.6,20.267-18.133,32-25.6c33.067,66.133,86.4,98.133,146.133,98.133l0,0c59.733,0,113.067-32,146.133-97.067
	c11.733,7.467,21.333,16,32,25.6c4.267-4.267,7.467-7.467,11.733-11.733c-11.733-10.667-23.467-20.267-36.267-28.8
	c17.067-39.467,27.733-85.333,28.8-134.4h74.667c0-3.2,0-5.333,0-8.533c0-3.2,0-5.333,0-8.533H438.4
	C436.267,198.934,426.667,153.068,409.6,113.601z M247.467,495.469c-50.133-4.267-94.933-30.933-123.733-89.6
	c37.333-21.333,78.933-33.067,123.733-35.2V495.469z M247.467,354.668c-46.933,1.067-90.667,13.867-130.133,36.267
	c-14.933-36.267-24.533-80-25.6-125.867h155.733L247.467,354.668L247.467,354.668z M247.467,248.001H91.733
	c1.067-45.867,10.667-89.6,25.6-125.867c39.467,22.4,83.2,35.2,130.133,36.267L247.467,248.001L247.467,248.001z M247.467,141.334
	c-43.733-1.067-86.4-13.867-123.733-35.2c28.8-57.6,72.533-85.333,123.733-89.6V141.334z M264.533,17.601
	c50.133,4.267,94.933,30.933,123.733,89.6c-37.333,21.333-78.933,33.067-123.733,35.2V17.601L264.533,17.601z M264.533,495.469
	V371.734c43.733,1.067,86.4,13.867,123.733,35.2C359.467,464.534,314.667,491.201,264.533,495.469z M394.667,390.935
	c-39.467-22.4-83.2-35.2-130.133-36.267v-89.6h155.733C419.2,310.935,409.6,354.668,394.667,390.935z M264.533,248.001v-89.6
	c46.933-1.067,90.667-13.867,130.133-36.267c14.933,36.267,24.533,80,25.6,125.867H264.533z"/>
<circle style="fill:#ACB3BA;" cx="73.6" cy="256.531" r="36.27"/>
<circle style="fill:#FFD15C;" cx="395.73" cy="110.401" r="36.27"/>
<circle style="fill:#FF7058;" cx="256" cy="363.201" r="36.27"/>
<g>
	<circle style="fill:#FFFFFF;" cx="73.6" cy="256.531" r="16"/>
	<circle style="fill:#FFFFFF;" cx="395.73" cy="110.401" r="16"/>
	<circle style="fill:#FFFFFF;" cx="256" cy="363.201" r="16"/>
</g>
<g>
</g>
<g>
</g>
<g>
</g>
<g>
</g>
<g>
</g>
<g>
</g>
<g>
</g>
<g>
</g>
<g>
</g>
<g>
</g>
<g>
</g>
<g>
</g>
<g>
</g>
<g>
</g>
<g>
</g>
</svg>
