<?xml version="1.0" encoding="iso-8859-1"?>
<!-- Generator: Adobe Illustrator 19.0.0, SVG Export Plug-In . SVG Version: 6.00 Build 0)  -->
<svg version="1.1" id="Capa_1" xmlns="http://www.w3.org/2000/svg" xmlns:xlink="http://www.w3.org/1999/xlink" x="0px" y="0px"
	 viewBox="0 0 511.998 511.998" style="enable-background:new 0 0 511.998 511.998;" xml:space="preserve">
<path style="fill:#F8F8F9;" d="M196.845,105.714c6.601-18.245,23.058-21.226,41.349-22.954c11.997-1.133,35.127-5.936,45.614,1.878
	c2.868,2.137,7.072,9.05,7.087,12.971c0.032,8.153-6.26,5.283-14.097,4.877c-16.52-0.857-32.566-0.55-49.044,0.68
	C221.92,103.602,196.156,105.179,196.845,105.714z"/>
<path style="fill:#EEF0F1;" d="M198.196,107.74c0.276-6.062,3.242-13.089,8.078-16.86c9.369-7.306,36.24-12.163,45.808-3.679
	c2.458,2.179,6.925,9.468,4.289,13.074c-2.554,3.494-15.256,1.282-18.476,1.358c-10.019,0.238-20.825,1.037-30.304,4.586
	c-3.712,1.39-7.678,5.334-10.839,0.793C197.565,106.394,198.496,106.187,198.196,107.74z"/>
<path style="fill:#FFC94E;" d="M261.227,100.351c-43.053-0.008-79.91,11.033-115.628,35.155
	c-45.815,30.941-79.18,82.533-88.697,137.147c-4.08,23.411-0.676,49.076,2.787,72.352c6.104,41.02,21.991,78.861,52.398,107.529
	c22.656,21.359,57.804,38.821,88.349,44.836c47.976,9.448,99.575,14.989,144.935-7.341c20.416-10.051,39.377-26.499,54.73-43.074
	c12.671-13.679,23.274-29.615,32.32-45.862c9.258-16.629,14.269-33.545,19.779-51.622c11.782-38.656,6.927-78.267-6.212-115.791
	c-13.781-39.357-38.137-68.931-71.984-92.756c-15.404-10.842-31.9-20.229-49.658-26.598c-10.873-3.899-22.304-5.77-33.421-8.801
	C280.693,102.735,272.079,99.667,261.227,100.351z"/>
<g>
	<path style="fill:#FAB732;" d="M349.142,486.068c-32.547,16.284-68.535,28.714-104.838,18.529
		c-20.925-5.871-42.73-5.922-63.596-13.481c-28.668-10.386-58.279-28.88-77.29-52.713c-9.911-12.425-16.201-26.819-24.563-40.192
		c-7.998-12.792-13.332-26.004-15.996-40.929c-5.186-29.056-9.949-61.301-4.446-90.417c6.948-36.765,19.581-72.033,46.45-98.982
		c3.096-3.105,14.082-16.03,19.036-15.091c7.233,1.371-0.215,13.827-1.894,17.441c-6.367,13.707-16.16,25.477-23.444,38.676
		c-8.587,15.562-13.33,32.807-17.892,49.851c-14.582,54.483-0.599,106.155,29.883,152.678
		c33.627,51.323,90.938,69.903,149.955,70.34c16.629,0.123,32.563-0.976,48.642-5.166c13.95-3.635,26.009-9.905,39.081-15.765
		c6.024-2.701,46.443-22.79,46.904-9.774c0.214,6.039-9.526,12.434-13.446,15.473C371.766,474.24,360.335,480.468,349.142,486.068z"
		/>
	<path style="fill:#FAB732;" d="M383.871,410.793c8.347-5.851,16.544-18.333,21.972-26.811
		c11.17-17.449,18.672-39.001,21.782-59.415c6.672-43.788-0.545-87.192-32.019-119.682c-12.913-13.33-25.538-25.486-39.912-37.214
		c-13.84-11.293-29.965-17.348-46.713-23.104c-17.272-5.936-35.16-12.273-53.402-14.251c-19.225-2.085-39.179,1.565-56.761,9.563
		c-5.508,2.505-39.681,21.606-36.656,30.579c2.555,7.58,20.153-5.244,24.524-7.252c17.915-8.229,39.97-19.758,59.892-20.104
		c12.904-0.224,24.678,3.418,37.039,6.448c19.827,4.859,36.089,13.609,52.983,24.933c19.185,12.859,35.216,30.698,50.656,47.766
		c14.152,15.643,24.336,35.597,29.841,56.013c5.839,21.655,1.544,45.556-3.192,67.03c-2.307,10.46-5.276,20.671-10.217,30.193
		c-5.452,10.508-16.067,20.977-17.962,32.74C387.056,409.499,388.052,409.249,383.871,410.793z"/>
</g>
<path style="fill:#F8F8F9;" d="M312.722,163.204c-11.005-5.399-21.897-11.062-33.495-15.117c-6.638-2.321-13.524-4.223-20.555-4.818
	c-6.832-0.578-12.533,1.53-19.053,2.065c-16.996,1.395-31.265,2.823-47.118,10.161c-14.457,6.692-27.818,15.636-40.327,25.449
	c-26.596,20.864-46.303,49.578-54.582,82.32c-10.224,40.43-7.23,78.418,9.503,116.861c6.885,15.818,17.99,26.656,29.457,39.218
	c9.43,10.329,18.782,18.318,31.351,24.81c21.226,10.964,42.978,19.553,66.797,22.56c48.986,6.183,101.375-5.305,136.142-42.652
	c53.112-57.056,67.77-155.559,9.614-213.985c-7.749-7.785-16.897-13.647-25.363-20.623c-11.42-9.41-23.913-17.412-37.253-23.77
	C316.129,164.867,314.424,164.039,312.722,163.204z"/>
<path style="fill:#EEF0F1;" d="M158.238,175.154c17.382-11.313,34.314-21.087,54.958-25.91c6.331-1.479,20.695-3.963,23.904,4.646
	c3.547,9.518-14.737,24.973-19.891,30.574c-35.588,38.676-83.501,88.998-73.4,146.969c8.091,46.437,46.645,68.116,90.948,69.987
	c46.092,1.946,81.844-21.372,120.669-42.728c13.208-7.266,36.444-20.499,47.989-4.447c16.046,22.309-18.778,51.443-32.805,65.887
	c-20.294,20.899-45.169,39.406-73.823,46.402c-28.796,7.03-59.701,3.965-87.463-5.639c-27.755-9.602-56.018-22.554-76.795-43.891
	c-11.104-11.403-18.342-22.03-23.99-36.972c-5.826-15.412-9.795-30.751-13.459-46.8c-6.444-28.218-4.807-52.747,5.488-79.684
	C112.567,222.155,129.093,193.078,158.238,175.154z"/>
<g>
	<path style="fill:#F13636;" d="M254.322,301.858c-3.826-6.001-4.55-16.645-6.051-23.605c-1.823-8.451-2.471-17.516-1.788-26.161
		c0.648-8.199,2.009-30.404,10.493-35.175c7.166,15.455,5.945,37.053,5.791,53.645C262.718,275.937,260.591,310.963,254.322,301.858
		z"/>
	<path style="fill:#F13636;" d="M239.248,288.835c-4.583-4.675-10.2-7.904-14.425-13.105c-5.125-6.309-10.191-12.69-15.223-19.068
		c-9.911-12.56-20.15-25.634-27.489-39.906c-1.916-3.727-10.619-18.313-7.21-22.142c3.07-3.448,12.661,3.863,15.483,5.545
		c15.347,9.153,25.694,26.367,34.665,41.179c6.683,11.033,13.097,22.105,17.294,34.375c1.094,3.197,1.999,6.453,3.06,9.659
		c0.64,1.933,2.068,4.277,1.847,6.358C246.491,298.892,238.21,288.167,239.248,288.835z"/>
</g>
<g>
	<path style="fill:#E81D1D;" d="M253.969,297.399c-0.803-1.128-0.944-2.511-1.254-3.839c-1.026-4.394-2.02-8.806-2.779-13.255
		c-1.296-7.589-2.891-15.331-3.472-23.011c-0.569-7.528-0.695-15.365,0.737-22.789c0.745-3.863,1.529-7.707,2.56-11.503
		c0.411-1.514,1.048-5.984,2.758-6.925c3.115-1.714,2.713,6.599,2.776,8.431c0.37,10.774,0.259,21.558,0.629,32.338
		c0.362,10.563,0.788,20.962-0.557,31.469C255.011,291.089,255.422,298.942,253.969,297.399z"/>
	<path style="fill:#E81D1D;" d="M178.491,195.959c10.543,11.324,18.515,25.462,27.569,37.967
		c10.085,13.93,19.763,27.891,29.137,42.304c2.644,4.066,5.667,7.813,8.633,11.628c0.904,1.162,3.541,4.179,2.672,5.762
		c-1.315,2.395-14.297-11.479-15.873-13.202c-13.359-14.606-25.141-30.273-37.352-45.805
		C190.135,230.616,165.131,194.797,178.491,195.959z"/>
</g>
<g>
	<path style="fill:#EEF0F1;" d="M178.018,209.309c-2.545-2.081-5.688-3.879-8.975-3.555c-2.83,9.671,5.998,21.534,11.038,28.905
		c8.2,11.993,19.183,21.547,28.782,32.382c12.675,14.308,19.564,32.309,33.929,45.039c6.424,5.693,15.041,8.669,9.622-2.749
		c-4.154-8.753-10.04-14.96-16.14-22.177c-10.15-12.007-19.623-24.378-29.109-36.978c-5.249-6.972-10.959-13.918-15.682-21.266
		C187.472,222.67,179.945,213.778,178.018,209.309z"/>
	<path style="fill:#EEF0F1;" d="M242.192,276.831c-4.636-17.886-9.078-36.782-1.174-54.55c5.897-13.255,9.066-7.369,9.013,2.534
		c-0.063,11.809-2.489,23.588-2.804,35.437c-0.137,5.167-1.142,10.492-0.474,15.656c0.499,3.856,2.593,7.652,1.993,11.481
		C243.558,284.609,241.97,275.211,242.192,276.831z"/>
</g>
<path d="M439.296,204.263c-25.601-44.683-66.995-78.89-115.647-95.847c-9.405-3.278-18.787-6.186-28.253-8.472
	c-4.44-25.032-29.921-27.383-51.743-24.383c0.931-4.908,0.724-9.91,1.924-14.832c1.25-5.128,3.381-10.149,5.439-14.997
	c3.674-8.651,8.677-15.849,9.89-25.413c1.8-14.195-10.599-24.674-24.365-18.519c-16.563,7.405-23.63,24.866-21.306,42.285
	c1.275,9.556,8.658,26.859,18.718,33.131c-16.236,3.269-40.591,10.846-38.118,28.217c-6.94,2.659-13.726,5.826-20.332,9.56
	c-13.482,5.941-26.297,13.265-38.527,21.58c-37.658,25.604-63.808,63.047-77.487,106.246c-14.39,45.444-12.764,94.656,4.348,139.171
	c7.637,19.868,18.276,40.847,31.605,57.525c14.099,17.643,34.502,32.006,53.704,43.569c40.674,24.495,88.216,30.467,134.737,28.595
	c22.788-0.917,43.202-6.065,64.167-15.127c20.051-8.667,36.196-22.786,50.913-38.688c30.282-32.719,55.437-72.865,60.8-117.789
	C465.271,293.947,462.961,245.565,439.296,204.263z M223.731,44.984c-1.418-6.923-0.461-16.044,2.115-22.574
	c2.556-6.48,11.484-15.849,18.94-15.953c21.063-0.295,2.747,29.583-0.541,37.408c-3.551,8.451-7.343,17.669-7.276,26.955
	C230.899,63.272,225.543,53.822,223.731,44.984z M239.736,84.684c8.846-1.394,17.373-2.033,26.274-0.986
	c10.389,1.221,16.48,5.573,19.318,14.077c-12.12-2.3-24.435-3.45-37.169-2.891c-16.157,0.708-31.763,3.445-46.672,8.495
	C206.027,90.496,228.448,86.463,239.736,84.684z M442.048,369.039c-6.178,20.177-18.655,38.545-30.768,55.605
	c-11.717,16.503-24.959,31.117-40.249,44.377c-16.388,14.213-35.782,20.883-56.128,27.341c-19.956,6.335-44.3,5.58-65.109,4.624
	c-22.119-1.016-44.202-5.852-65.108-13.048c-20.99-7.225-40.322-18.812-57.738-32.52c-8.154-6.418-16.792-13.613-23.413-21.648
	c-7.142-8.668-12.486-19.156-18.116-28.839c-22.065-37.952-31.415-85.628-24.139-128.999c4.201-25.043,12.9-48.319,24.574-70.798
	c10.959-21.101,27.55-36.982,45.29-52.324c16.82-14.546,37.471-25.949,58.224-33.81c14.199-5.378,30.963-11.542,47.153-13.839
	c0.502-0.042,1.014-0.089,1.512-0.129c22.561-1.804,43.768,1.341,65.286,7.96c42.824,13.173,79.768,36.192,108.357,70.827
	c28.416,34.424,39.62,76.985,39.592,120.94C451.255,326.268,448.355,348.444,442.048,369.039z"/>
<path d="M344.52,173.133c-17.617-11.732-35.253-23.521-55.856-29.211c-20.049-5.536-39.861-7.96-60.441-4.393
	c-31.354,5.436-60.69,18.348-82.272,41.884c-8.091,8.824-17.63,15.914-25.249,25.361c-14.691,18.216-25.799,39.758-30.101,62.877
	c-7.083,38.062-3.638,74.63,12.327,110.048c14.476,32.115,41.2,62.447,74.785,74.943c33.484,12.458,70.948,23.969,107.2,18.204
	c18.689-2.972,37.658-10.434,54.116-19.675c15.93-8.944,30.258-18.059,41.959-32.319c23.617-28.783,38.194-62.18,42.671-99.196
	c4.811-39.786-9.264-75.582-33.361-106.603C377.679,198.807,361.637,184.532,344.52,173.133z M387.583,393.758
	c-9.259,13.508-18.196,28.026-31.859,37.617c-14.086,9.887-30.041,18.482-46.206,24.322c-16.84,6.084-33.654,9.828-51.655,8.325
	c-9.193-0.767-18.254-2.377-27.372-3.679c-8.657-1.236-16.41-3.704-24.84-5.903c-15.546-4.057-30.63-10.791-44.284-19.215
	c-15.528-9.581-26.249-22.007-36.732-36.699c-20.255-28.386-30.786-63.895-29.329-98.759c1.719-41.139,18.906-80.468,50.066-107.832
	c23.437-20.581,53.575-35.894,84.717-42.891c14.421-1.583,28.945-1.017,42.484,2.067c17.759,4.045,33.288,9.867,48.468,20.062
	c14.708,9.878,29.544,19.05,42.582,31.209c25.032,23.346,48.007,56.584,49.598,91.837
	C414.783,328.855,407.45,364.774,387.583,393.758z"/>
<path d="M227.434,204.677c5.833-0.284,11.491-0.323,17.271,0.059c2.159,0.143,3.633-2.111,3.411-4.084
	c-0.248-2.21-1.185-1.964-2.902-2.709c-3.983-1.729-2.813-4.931-2.592-8.618c0.208-3.46,0.393-6.926,0.975-10.348
	c0.724-4.263,2.937-8.858,2.371-13.159c-0.378-2.878-3.2-4.12-5.507-2.281c-4.72,3.762-7.205,10.317-12.042,14.355
	c-2.013,1.68,0.176,4.255,2.288,3.864v0.067c0.117-0.044,0.21-0.107,0.324-0.153c0.079-0.027,0.159-0.047,0.238-0.083l0.379-0.175
	c0.056-0.026,0.09-0.07,0.141-0.1c2.156-1.032,3.857-2.458,5.573-4.175c-0.54,3.178-1.009,6.377-1.343,9.581
	c-0.195,1.877,0.355,7.605-0.199,10.275c-2.814,0.2-5.544,1.094-8.388,1.246C223.314,198.457,223.281,204.88,227.434,204.677z"/>
<path d="M282.83,198.423c-4.057-1.221-8.533-1.845-12.813-2.216c1.253-1.1,2.4-2.497,3.427-4.369
	c3.741-6.816,3.639-14.941,0.516-21.996c-2.292-5.176-6.643-7.546-12.12-5.589c-5.491,1.962-10.637,6.98-6.611,12.624
	c0.917,1.285,2.878,0.838,2.974-0.804c0.242-4.144,5.013-6.289,8.187-3.834c4.367,3.378,4.212,9.018,2.474,13.834
	c-0.915,2.535-2.406,5.707-4.991,6.952c-2.632,1.267-6.162,1.518-8.96,2.623c-2.46,0.972-3.634,4.715-0.805,6.162
	c3.513,1.797,7.232,0.904,11.044,1.064c6.057,0.254,11.653,2.762,17.679,1.62C286.028,203.889,285.619,199.262,282.83,198.423z"/>
<path d="M253.734,430.369c2.892-7.223,8.415-13.176,14.154-18.652c1.122-1.07-0.382-3.142-1.696-2.198
	c-10.071,7.234-18.026,14.914-20.158,27.558c-1.408,8.351,0.861,17.423,10.216,19.385c10.793,2.264,18.527-6.83,17.109-17.281
	C272.02,429.312,261.178,425.703,253.734,430.369z M258.973,449.847c-4.216,0.064-7.787-3.993-7.245-8.179
	c0.567-4.379,8.413-8.436,12.238-5.853C270.598,440.292,264.722,449.759,258.973,449.847z"/>
<path d="M374.86,296.807c0.758,0.996,2.4,0.737,2.445-0.662c0.107-3.367,3.147-5.149,6.121-5.416
	c1.552-0.14,6.141-0.009,6.984,1.863c1.036,2.303-1.085,6.437-3.015,7.773c-0.918,0.635-2.761,1.219-3.807,1.811
	c-2.275,1.287-1.948,5.223,0.757,5.79c5.109,1.073,10.552,6.371,3.835,9.793c-3.738,1.904-9.246,2.225-11.966-1.392
	c-2.582-3.433-8.365-0.353-5.928,3.465c5.237,8.204,17.597,7.833,24.586,1.799c6.75-5.828,3.192-13.269-2.794-17.233
	c2.161-1.553,3.993-3.434,4.937-6.283c1.714-5.177-0.547-9.168-5.15-11.577C385.254,283.083,367.531,287.175,374.86,296.807z"/>
<path d="M134.892,300.917c-0.224-6.895-4.584-19.186-13.045-18.119c-7.516,0.948-15.568,14.798-7.166,19.794
	c4.602,2.737,10.015,0.91,13.421-2.749c0.244,1.733,0.188,3.524-0.396,5.441c-1.073,3.517-3.158,6.584-6.864,7.589
	c-3.497,0.948-6.892-0.065-10.253,0.596c-1.61,0.317-3.167,1.518-3.351,3.149c-0.557,4.953,10.46,3.783,13.029,3.237
	c4.894-1.04,9.439-3.774,11.917-8.226C133.918,308.514,135.008,304.499,134.892,300.917z M122.813,296.748
	c-1.776,1.829-4.296,2.386-5.341-0.982c-1.158-3.733,5.719-9.665,7.149-4.159C125.058,293.291,124.144,295.377,122.813,296.748z"/>
<path d="M247.933,301.012c-0.045,0.048-0.097,0.09-0.14,0.139c-3.662,4.123-1.575,9.957,2.365,12.543
	c2.209,2.256,6.209,3.374,9.184,2.411c3.783-1.225,5.033-5.99,4.853-9.546c-0.132-2.597-1.162-5.164-3.002-6.896
	c1.451-5.297,2.134-10.972,2.717-16.19c1.119-10.02,2.236-20.508,1.943-30.587c-0.284-9.763-1.638-19.83-3.966-29.315
	c-0.813-3.315-1.894-10.969-6.595-11.373c-4.121-0.354-5.29,4.26-6.196,7.288c-2.808,9.383-4.412,19.408-5.006,29.18
	c-0.601,9.895,0.215,20.679,2.251,31.096c-1.558-4.279-3.138-8.544-4.941-12.748c-5.913-13.792-13.358-26.601-22.242-38.686
	c-7.144-9.718-14.505-21.126-23.822-28.854c-4.233-3.511-16.911-12.326-23.24-8.274c-6.303,4.036,2.404,15.494,4.428,19.784
	c6.228,13.208,14.198,25.236,23.035,36.838c7.968,10.462,17.129,19.805,25.457,29.939c6.119,7.445,14.002,16.352,22.563,22.199
	C247.696,300.31,247.819,300.661,247.933,301.012z M250.651,243.573c0.067-0.622,3.069-24.143,4.816-24.102
	c-1.265-0.03,2.209,14.106,2.533,16.187c1.32,8.475,2.054,17.018,1.571,25.592c-0.625,11.089-0.966,23.543-3.64,34.827
	c-0.746-9.922-4.121-19.933-5.195-29.668C249.891,258.753,249.824,251.241,250.651,243.573z M214.18,256.68
	c-7.691-8.836-14.788-18.31-21.2-28.113c-3.064-4.684-5.952-9.496-8.5-14.483c-1.806-3.536-7.348-11.429-7.295-15.352
	c0.064-4.725,8.355,0.86,11.035,2.619c4.592,3.014,7.882,6.866,11.314,11.073c7.472,9.159,14.788,18.533,21.238,28.45
	c6.723,10.335,12.229,21.399,16.781,32.849c1.995,5.017,4.095,10.127,6.08,15.277C233.469,278.569,223.781,267.711,214.18,256.68z"
	/>
<path d="M326.488,194.761c-1.986,1.452-3.261,3.308-4.657,5.301c-0.627,0.896-1.38,1.711-1.926,2.661
	c-0.09,0.157-0.172,0.329-0.251,0.504c-0.373,0.56-0.716,1.152-1.032,1.77c-2.779,3.512,1.565,7.93,5.057,4.953
	c1.47-1.253,2.105-3.156,3.319-4.624c1.34-1.621,2.541-3.195,4.028-4.686C333.923,197.734,330.016,192.181,326.488,194.761z"/>
<path d="M359.718,248.697c-1.288,1.113-1.43,3.299-0.607,4.706c0.937,1.602,2.66,2.046,4.385,1.785
	c2.713-0.411,5.052-1.749,7.47-2.965c2.479-1.246,5.248-1.057,6.901-3.581c0.666-1.017,0.75-2.79,0-3.796
	c-3.533-4.739-8.42-1.367-12.77,1.115C363.16,246.618,361.344,247.293,359.718,248.697z"/>
<path d="M359.369,365.053c-4.144-1.12-7.117,5.184-3.012,7.145c2.369,1.132,4.908,1.649,7.351,2.569
	c2.377,0.895,4.115,3.213,6.795,3.072c1.379-0.072,3.122-1.018,3.352-2.552C374.967,367.889,364.555,366.537,359.369,365.053z"/>
<path d="M326.719,413.864c-0.507-1.071-0.82-2.235-1.474-3.235c-0.597-0.913-1.468-1.566-2.113-2.417
	c-1.314-1.733-3.479-2.64-5.519-1.447c-1.782,1.042-2.681,3.711-1.447,5.519c0.414,0.98,1.247,1.608,1.79,2.485
	c0.487,0.787,0.738,1.699,1.091,2.564c0.873,2.14,2.338,3.973,3.643,5.867c0.793,1.152,2.133,2.251,3.65,2.094
	c1.286-0.133,1.997-0.466,2.989-1.238c1.071-0.834,1.56-2.866,1.087-4.113C329.532,417.618,327.759,416.064,326.719,413.864z"/>
<path d="M205.841,411.68c-2.001-0.232-3.992,2.28-5.065,3.932c-1.285,1.568-2.527,3.337-3.456,5.018
	c-0.121,0.218-0.245,0.518-0.372,0.845c-1.157,1.656-2.31,3.311-3.278,5.044c-1.648,2.951,1.075,6.576,4.381,5.698
	c3.322-0.882,4.576-3.943,6.085-6.69c1.853-3.373,6.893-8.377,3.689-12.548C207.185,412.145,206.512,411.758,205.841,411.68z"/>
<path d="M151.943,361.063c-0.253-0.228-0.57-0.44-0.957-0.633c-1.292-0.643-2.846-0.442-4.222-0.007
	c-3.564,1.127-6.289,3.465-9.659,5.043c-1.648,0.771-3.188,1.222-4.41,2.667c-2.857,3.378,0.648,7.905,4.652,6.03
	c-1.302,0.609,1.026-0.084,1.401-0.185c0.91-0.246,1.802-0.694,2.634-1.136c1.563-0.83,2.999-1.725,4.614-2.467
	C148.311,369.313,155.131,363.93,151.943,361.063z"/>
<path d="M127.255,250.308c0.308,0.229,0.614,0.456,0.922,0.683c4.033,3.216,9.544,10.314,14.511,5.903
	c1.088-0.966,1.465-3.163,0.566-4.385c-1.49-2.024-4.071-3.029-6.049-4.576c-2.233-1.746-4.215-3.795-6.984-4.658
	c-1.811-0.564-3.851,0.518-4.539,2.228C124.916,247.407,125.67,249.133,127.255,250.308z"/>
<g>
</g>
<g>
</g>
<g>
</g>
<g>
</g>
<g>
</g>
<g>
</g>
<g>
</g>
<g>
</g>
<g>
</g>
<g>
</g>
<g>
</g>
<g>
</g>
<g>
</g>
<g>
</g>
<g>
</g>
</svg>
