<svg height="413pt" viewBox="0 -1 413.68 413" width="413pt" xmlns="http://www.w3.org/2000/svg"><path d="m300.589844 329.769531 70.199218-33.160156c15.476563-7.8125 34.363282-2.085937 42.890626 13.011719l-142.691407 92.300781c-19.128906 8.828125-40.597656 11.257813-61.21875 6.929687l-98.410156-27.621093c-9.058594-2.542969-18.746094-1.480469-27.039063 2.960937l-20.582031 11.007813 2.773438-100.371094.816406.023437c29.410156-20.894531 68.03125-23.597656 100.0625-7l5.890625 3.046876c9.207031 4.773437 19.378906 7.398437 29.75 7.679687l57.847656 1.601563c18.15625.496093 34.046875 12.335937 39.710938 29.589843zm0 0" fill="#f7caa5"/><path d="m383.078125 111.679688c8.828125 12.796874 8.828125 29.714843 0 42.511718-4.316406 6.261719-6.628906 13.691406-6.628906 21.296875 0 .691407.019531 1.390625.0625 2.082031l.019531.28125c.867188 15.308594-7.761719 29.667969-21.980469 36.589844l-.152343.070313c-7.578126 3.644531-13.792969 9.625-17.726563 17.058593l-.070313.140626c-7.191406 13.6875-22.121093 21.988281-38.042968 21.140624l-.277344-.011718c-8.5625-.46875-17.054688 1.738281-24.300781 6.320312-13.503907 8.507813-30.6875 8.507813-44.191407 0-6.59375-4.167968-14.238281-6.382812-22.039062-6.378906-.75 0-1.511719.019531-2.261719.058594l-.277343.011718c-15.921876.847657-30.851563-7.453124-38.039063-21.140624l-.070313-.140626c-3.9375-7.433593-10.152343-13.414062-17.730468-17.058593l-.152344-.070313c-14.230469-6.921875-22.847656-21.28125-21.980469-36.589844l.023438-.28125c.457031-8.304687-1.851563-16.53125-6.570313-23.378906-8.839844-12.792968-8.839844-29.71875 0-42.511718 4.316406-6.261719 6.628906-13.691407 6.628906-21.300782 0-.6875-.019531-1.390625-.058593-2.078125l-.023438-.269531c-.75-15.523438 7.925781-29.964844 21.980469-36.589844l.152344-.070312c7.578125-3.652344 13.789062-9.628906 17.730468-17.0625l.070313-.136719c7.1875-13.691406 22.117187-21.992187 38.039063-21.152344l.277343.019531c8.5625.460938 17.050781-1.746093 24.300781-6.320312 13.503907-8.503906 30.6875-8.503906 44.191407 0 7.25 4.574219 15.742187 6.78125 24.300781 6.320312l.277344-.019531c15.921875-.839843 30.851562 7.460938 38.042968 21.152344l.070313.136719c3.9375 7.433594 10.148437 13.410156 17.726563 17.0625l.152343.070312c14.050781 6.625 22.726563 21.070313 21.980469 36.589844l-.019531.269531c-.460938 8.304688 1.847656 16.527344 6.566406 23.378907zm0 0" fill="#00efd1"/><path d="m302.710938 352.371094h-.222657l-95.085937-2.609375c-4.417969-.121094-7.902344-3.800781-7.78125-8.21875s3.800781-7.902344 8.21875-7.78125l86.179687 2.367187c-.269531-1.304687-.609375-2.589844-1.027343-3.855468-4.625-14.039063-17.554688-23.675782-32.332032-24.097657l-57.851562-1.601562c-11.570313-.332031-22.921875-3.261719-33.207032-8.574219l-5.890624-3.050781c-29.351563-15.292969-64.808594-12.816407-91.746094 6.417969-3.605469 2.5625-8.597656 1.714843-11.15625-1.886719-2.558594-3.601563-1.714844-8.597657 1.886718-11.15625 31.820313-22.71875 73.703126-25.648438 108.375-7.582031l5.886719 3.050781c8.144531 4.207031 17.128907 6.523437 26.289063 6.785156l57.855468 1.601563c13.53125.363281 26.363282 6.089843 35.667969 15.921874 9.304688 9.828126 14.316407 22.953126 13.9375 36.484376-.117187 4.332031-3.664062 7.78125-8 7.78125zm0 0" fill="#edb288"/><g fill="#fedb41"><path d="m204.492188 216.851562c-2.90625-.003906-5.582032-1.582031-6.992188-4.125-1.40625-2.542968-1.324219-5.648437.214844-8.113281l94.769531-151.820312c1.5-2.453125 4.199219-3.917969 7.078125-3.828125 2.875.089844 5.480469 1.71875 6.824219 4.261718 1.34375 2.542969 1.21875 5.613282-.332031 8.039063l-94.769532 151.820313c-1.460937 2.34375-4.03125 3.769531-6.792968 3.765624zm0 0"/><path d="m208.761719 133.328125c-19.484375 0-35.332031-18.070313-35.332031-40.289063 0-22.214843 15.847656-40.277343 35.332031-40.277343 19.480469 0 35.328125 18.066406 35.328125 40.277343 0 22.210938-15.851563 40.289063-35.328125 40.289063zm0-64.566406c-10.660157 0-19.332031 10.890625-19.332031 24.277343 0 13.390626 8.671874 24.289063 19.332031 24.289063 10.65625 0 19.328125-10.898437 19.328125-24.289063 0-13.390624-8.671875-24.277343-19.328125-24.277343zm0 0"/><path d="m295.011719 213.121094c-19.484375 0-35.332031-18.074219-35.332031-40.292969 0-22.214844 15.847656-40.277344 35.332031-40.277344 19.480469 0 35.328125 18.066407 35.328125 40.277344 0 22.214844-15.847656 40.292969-35.328125 40.292969zm0-64.570313c-10.660157 0-19.332031 10.890625-19.332031 24.277344 0 13.390625 8.671874 24.292969 19.332031 24.292969 10.65625 0 19.328125-10.902344 19.328125-24.292969 0-13.386719-8.671875-24.277344-19.328125-24.277344zm0 0"/></g><path d="m63.738281 395.199219-.308593 11.3125-63.429688-1.75 3.828125-139.210938 63.441406 1.738281-.757812 27.539063zm0 0" fill="#00acea"/></svg>