<svg height="512pt" viewBox="-31 0 512 512" width="512pt" xmlns="http://www.w3.org/2000/svg"><path d="m275 0h-220c-30.328125 0-55 24.671875-55 55v402c0 30.328125 24.671875 55 55 55h231.078125v-5c-5.519531 0-10-4.488281-10-10v-16.078125c0-15.3125-16.558594-25.070313-30-17.320313-10.488281 6.058594-21.378906 15.097657-27.589844 4.378907l-30-51.960938c-1.519531-2.640625-1.667969-5.730469-.859375-8.019531 1.5-4.789062 4.019532-5.351562 18.449219-13.679688 13.332031-7.699218 13.351563-26.929687 0-34.640624l-13.929687-8.039063c-4.777344-2.769531-6.417969-8.871094-3.660157-13.660156l30-51.960938c1.792969-3.089843 5.113281-5 8.683594-5 3.4375 0 3.886719.710938 18.90625 9.378907 13.382813 7.710937 30-1.9375 30-17.320313v-16.078125c0-5.511719 4.480469-10 10-10h43.921875v-192c0-30.328125-24.671875-55-55-55zm0 0" fill="#d6f3fe"/><path d="m275 0h-110v512h121.078125v-5c-5.519531 0-10-4.488281-10-10v-16.078125c0-15.3125-16.558594-25.070313-30-17.320313-10.488281 6.058594-21.378906 15.097657-27.589844 4.378907l-30-51.960938c-1.519531-2.640625-1.667969-5.730469-.859375-8.019531 1.5-4.789062 4.019532-5.351562 18.449219-13.679688 13.332031-7.699218 13.351563-26.929687 0-34.640624l-13.929687-8.039063c-4.777344-2.769531-6.417969-8.871094-3.660157-13.660156l30-51.960938c1.792969-3.089843 5.113281-5 8.683594-5 3.4375 0 3.886719.710938 18.90625 9.378907 13.382813 7.710937 30-1.9375 30-17.320313v-16.078125c0-5.511719 4.480469-10 10-10h43.921875v-192c0-30.328125-24.671875-55-55-55zm0 0" fill="#bdecfc"/><path d="m330 55v192h-32v-142h-266v303h155.628906c-.898437 2.519531-.507812 5.671875.859375 8.019531 32.121094 55.621094 30.382813 53.449219 33.121094 55.28125 7.25 4.828125 12.621094-1.421875 24.261719-7.582031.007812 0 .007812-.007812.019531-.007812 15.300781-8.050782 30.1875 2.808593 30.1875 17.210937v16.078125c0 5.480469 4.441406 9.960938 9.921875 10v5h-231c-30.328125 0-55-24.671875-55-55v-402c0-30.328125 24.671875-55 55-55h220c30.328125 0 55 24.671875 55 55zm0 0" fill="#b6d2e0"/><path d="m286 507v5h-121v-104h22.628906c-.898437 2.519531-.507812 5.671875.859375 8.019531 32.121094 55.621094 30.382813 53.449219 33.121094 55.28125 7.25 4.828125 12.621094-1.421875 24.261719-7.582031.007812 0 .007812-.007812.019531-.007812 15.300781-8.050782 30.1875 2.808593 30.1875 17.210937v16.078125c0 5.480469 4.441406 9.960938 9.921875 10zm0 0" fill="#aac3ce"/><path d="m330 55v192h-32v-142h-133v-105h110c30.328125 0 55 24.671875 55 55zm0 0" fill="#aac3ce"/><path d="m135 241h-60c-8.285156 0-15-6.714844-15-15v-60c0-8.285156 6.714844-15 15-15h60c8.285156 0 15 6.714844 15 15v60c0 8.285156-6.714844 15-15 15zm0 0" fill="#dd5c60"/><path d="m135 361h-60c-8.285156 0-15-6.714844-15-15v-60c0-8.285156 6.714844-15 15-15h60c8.285156 0 15 6.714844 15 15v60c0 8.285156-6.714844 15-15 15zm0 0" fill="#7edc87"/><path d="m255 241h-60c-8.285156 0-15-6.714844-15-15v-60c0-8.285156 6.714844-15 15-15h60c8.285156 0 15 6.714844 15 15v60c0 8.285156-6.714844 15-15 15zm0 0" fill="#e79b34"/><path d="m346.078125 512h-60c-8.285156 0-15-6.714844-15-15v-16.078125c0-11.5625-12.503906-18.761719-22.5-12.988281l-13.925781 8.039062c-7.171875 4.140625-16.347656 1.683594-20.488282-5.492187l-30-51.960938c-4.144531-7.171875-1.683593-16.347656 5.488282-20.488281l13.925781-8.039062c9.992187-5.769532 10.015625-20.199219 0-25.980469l-13.925781-8.039063c-7.171875-4.144531-9.632813-13.316406-5.488282-20.492187l30-51.960938c4.140626-7.171875 13.316407-9.632812 20.488282-5.488281l13.925781 8.039062c9.992187 5.769532 22.5-1.425781 22.5-12.992187v-16.078125c0-8.285156 6.714844-15 15-15h60c8.28125 0 15 6.714844 15 15v16.078125c0 11.5625 12.5 18.761719 22.5 12.988281l13.921875-8.039062c7.175781-4.140625 16.347656-1.683594 20.488281 5.492187l30 51.960938c4.144531 7.171875 1.6875 16.347656-5.488281 20.488281l-13.921875 8.039062c-9.992187 5.769532-10.019531 20.199219 0 25.980469l13.921875 8.039063c7.175781 4.144531 9.632812 13.316406 5.488281 20.492187l-30 51.960938c-4.140625 7.171875-13.316406 9.632812-20.488281 5.488281l-13.921875-8.039062c-9.992187-5.769532-22.5 1.425781-22.5 12.992187v16.078125c0 8.285156-6.71875 15-15 15zm0 0" fill="#7280f8"/><path d="m442.5 398.03125-13.921875-8.042969c-10.019531-5.777343-10-20.207031 0-25.976562l13.921875-8.042969c7.171875-4.140625 9.628906-13.320312 5.488281-20.488281l-30-51.960938c-4.136719-7.179687-13.316406-9.628906-20.488281-5.488281l-13.921875 8.039062c-10 5.769532-22.5-1.429687-22.5-12.992187v-16.078125c0-8.28125-6.71875-15-15-15h-30v270h30c8.28125 0 15-6.71875 15-15v-16.078125c0-11.5625 12.5-18.761719 22.5-12.992187l13.921875 8.039062c7.171875 4.140625 16.351562 1.679688 20.488281-5.488281l30-51.960938c4.140625-7.167969 1.683594-16.347656-5.488281-20.488281zm0 0" fill="#434af2"/><path d="m316.078125 422c-24.8125 0-45-20.1875-45-45s20.1875-45 45-45 45 20.1875 45 45-20.1875 45-45 45zm0 0" fill="#d6f3fe"/><path d="m316.078125 332v90c24.8125 0 45-20.191406 45-45s-20.1875-45-45-45zm0 0" fill="#bdecfc"/></svg>