<svg height="512pt" viewBox="0 -35 512 512" width="512pt" xmlns="http://www.w3.org/2000/svg"><path d="m512 0h-256l-20.015625 297.253906 276.015625-20.019531zm0 0" fill="#03232e"/><path d="m0 0v277.234375l256 20.019531v-297.253906zm0 0" fill="#07485e"/><path d="m341.046875 426.070312v-63.789062l-105.0625-20.015625 20.015625 83.804687zm0 0" fill="#87a0af"/><path d="m170.953125 426.070312h85.046875v-83.804687l-85.046875 20.015625zm0 0" fill="#b4d2d7"/><path d="m388.886719 441.066406v-30h-132.886719l-10.007812 15 10.007812 15zm0 0" fill="#b4d2d7"/><path d="m123.113281 411.066406h132.886719v30h-132.886719zm0 0" fill="#e1ebf0"/><path d="m256 277.234375-20.015625 42.527344 20.015625 42.519531h256v-85.046875zm0 0" fill="#b4d2d7"/><path d="m0 277.234375h256v85.046875h-256zm0 0" fill="#e1ebf0"/><path d="m183.828125 224.632812-67.683594-86.015624 67.683594-86.015626 23.574219 18.550782-53.082032 67.464844 53.082032 67.464843zm0 0" fill="#fff5f5"/><path d="m328.171875 224.632812-23.574219-18.550781 53.082032-67.464843-53.082032-67.464844 23.574219-18.550782 67.683594 86.015626zm0 0" fill="#efe2dd"/><path d="m241 52.644531h30v171.945313h-30zm0 0" fill="#fff5f5"/></svg>