<svg height="512pt" viewBox="-30 0 512 512" width="512pt" xmlns="http://www.w3.org/2000/svg"><path d="m428.824219 202.503906c0 52.871094-20.257813 102.902344-57.042969 140.875h-290.929688c-36.773437-37.972656-57.03125-88.003906-57.03125-140.875 0-12.246094 1.089844-24.242187 3.191407-35.894531 16.976562-94.601563 99.890625-166.609375 199.3125-166.609375 23.398437 0 45.878906 3.992188 66.804687 11.324219 71.082032 24.910156 124.183594 88.417969 134.046875 165.257812 1.089844 8.492188 1.648438 17.136719 1.648438 25.921875zm0 0" fill="#76c8ff"/><path d="m428.824219 202.503906c0 52.871094-20.257813 102.902344-57.042969 140.875h-145.457031v-343.378906c23.398437 0 45.878906 3.992188 66.804687 11.324219 71.082032 24.910156 124.183594 88.417969 134.046875 165.257812 1.089844 8.492188 1.648438 17.136719 1.648438 25.921875zm0 0" fill="#279eff"/><path d="m160.914062 272.300781-.097656-.699219-14.667968-59.292968c-1.417969-7.59375-6.421876-13.578125-13.195313-15.726563l-.230469-.082031-105.710937-29.890625c-2.101563 11.652344-3.191407 23.648437-3.191407 35.894531 0 52.871094 20.257813 102.902344 57.03125 140.875h35.226563l40.6875-54.011718c3.558594-4.679688 5.070313-10.902344 4.148437-17.066407zm0 0" fill="#e5e023"/><path d="m427.175781 176.582031-78.753906 41.277344c-2.46875 1.308594-5.109375 1.949219-7.753906 1.949219-5.070313 0-10.152344-2.339844-13.992188-6.75l-.390625-.460938-43.378906-53.960937c-4.203125-5.015625-6.59375-12.558594-4.601562-19.378907l14.824218-127.933593c71.082032 24.910156 124.183594 88.417969 134.046875 165.257812zm0 0" fill="#bcb200"/><path d="m360.199219 343.378906h-197.140625l63.265625-54.730468 25.628906-22.179688c3.839844-4.03125 9.675781-6.210938 16.546875-6.113281l.890625.019531 33.183594 4.542969c7.332031.429687 14.1875 3.84375 18.9375 9.464843l.949219 1.121094zm0 0" fill="#e5e023"/><path d="m191.738281 267.25c-.488281 0-.988281-.019531-1.480469-.070312-.488281-.050782-.96875-.121094-1.449218-.21875-.480469-.101563-.960938-.222657-1.433594-.363282-.46875-.136718-.929688-.308594-1.378906-.5-.449219-.179687-.898438-.390625-1.332032-.617187-.429687-.230469-.847656-.492188-1.257812-.761719s-.8125-.5625-1.183594-.871094c-.378906-.3125-.75-.648437-1.097656-.988281-2.792969-2.792969-4.394531-6.652344-4.394531-10.617187 0-.488282.019531-.976563.070312-1.46875.050781-.492188.121094-.980469.222657-1.460938.097656-.480469.21875-.960938.355468-1.421875.144532-.46875.3125-.929687.503906-1.390625.179688-.449219.390626-.890625.617188-1.320312.230469-.429688.480469-.859376.75-1.257813.28125-.410156.570312-.8125.882812-1.191406.308594-.382813.640626-.75.988282-1.089844.351562-.351563.722656-.683594 1.101562-.992187.371094-.308594.769532-.609376 1.179688-.878907s.832031-.519531 1.261718-.75c.429688-.230469.882813-.441406 1.332032-.632812.449218-.179688.910156-.347657 1.378906-.488281.472656-.148438.953125-.269532 1.429688-.359376.480468-.101562.960937-.171874 1.453124-.222656.980469-.097656 1.96875-.097656 2.949219 0 .492188.050782.980469.121094 1.460938.222656.472656.089844.953125.210938 1.421875.359376.46875.140624.929687.308593 1.378906.488281.453125.191406.902344.402343 1.332031.632812.429688.230469.859375.480469 1.261719.75.410156.269531.808594.570313 1.1875.878907.382812.3125.75.640624 1.09375.992187.347656.339844.679688.707031.988281 1.089844.308594.378906.601563.78125.878907 1.191406.273437.398437.523437.828125.753906 1.257813.226562.429687.4375.871093.628906 1.320312.179688.460938.351562.921875.488281 1.390625.140625.460937.273438.941406.359375 1.421875.101563.480469.171875.96875.222656 1.460938.050782.488281.070313.980468.070313 1.46875 0 .492187-.023437.992187-.070313 1.480468-.050781.480469-.121093.972656-.222656 1.453125-.089844.476563-.21875.960938-.359375 1.429688-.140625.460937-.308593.929687-.488281 1.378906-.191406.453125-.402344.902344-.628906 1.332031-.230469.429688-.480469.851563-.753906 1.261719-.277344.410156-.570313.800781-.878907 1.179687-.3125.378907-.640625.75-.988281 1.101563-.34375.339844-.710938.679687-1.09375.988281-.378906.3125-.777344.601563-1.1875.871094-.402344.269531-.832031.53125-1.261719.761719-.429687.230469-.878906.441406-1.332031.621093-.449219.1875-.910156.359376-1.378906.5-.46875.140626-.949219.257813-1.421875.359376-.480469.097656-.96875.167968-1.460938.21875-.488281.050781-.988281.070312-1.46875.070312zm0 0" fill="#e6e4f9"/><path d="m360.199219 343.378906h-133.875v-54.730468l25.628906-22.179688c3.839844-4.03125 9.675781-6.210938 16.546875-6.113281l.890625.019531 33.183594 4.542969c7.332031.429687 14.1875 3.84375 18.9375 9.464843l.949219 1.121094zm0 0" fill="#bcb200"/><path d="m248.53125 107.761719c-.488281 0-.988281-.019531-1.480469-.066407-.480469-.050781-.96875-.132812-1.449219-.222656-.480468-.101562-.960937-.21875-1.429687-.359375-.460937-.148437-.933594-.308593-1.382813-.5-.449218-.191406-.898437-.398437-1.328124-.628906-.433594-.230469-.851563-.480469-1.261719-.75-.410157-.273437-.8125-.5625-1.191407-.871094-.378906-.3125-.75-.652343-1.089843-1-.351563-.339843-.679688-.710937-.988281-1.089843-.3125-.382813-.601563-.78125-.882813-1.183594-.269531-.410156-.519531-.828125-.75-1.269532-.230469-.429687-.441406-.871093-.628906-1.320312-.183594-.449219-.351563-.921875-.492188-1.390625-.140625-.460937-.257812-.941406-.359375-1.421875-.097656-.480469-.167968-.96875-.21875-1.460938-.050781-.488281-.070312-.980468-.070312-1.46875 0-.492187.019531-.992187.070312-1.480468.050782-.480469.121094-.972656.21875-1.453125.101563-.476563.21875-.957031.359375-1.429688.140625-.460937.3125-.929687.492188-1.378906.1875-.449219.398437-.902344.628906-1.332031.230469-.429688.480469-.851563.75-1.261719.28125-.410156.570313-.800781.882813-1.179687.308593-.378907.640624-.75.988281-1.101563.339843-.339844.710937-.679687 1.089843-.988281.382813-.308594.78125-.601563 1.191407-.871094.410156-.269531.828125-.519531 1.261719-.75.429687-.230469.878906-.441406 1.328124-.632812.449219-.1875.910157-.347657 1.382813-.5.46875-.136719.949219-.257813 1.429687-.359376.480469-.089843.96875-.167968 1.449219-.21875 4.453125-.441406 8.953125 1.191407 12.085938 4.320313.351562.351563.679687.722656.988281 1.101563.3125.378906.613281.769531.882812 1.179687.269532.410156.519532.832031.75 1.261719.230469.429687.441407.882812.628907 1.332031.183593.449219.351562.917969.492187 1.378906.140625.472657.269532.949219.359375 1.429688.101563.480469.167969.972656.21875 1.453125.050781.488281.082031.988281.082031 1.480468 0 .488282-.03125.980469-.082031 1.46875-.050781.492188-.117187.980469-.21875 1.460938-.089843.480469-.21875.960938-.359375 1.421875-.140625.46875-.3125.9375-.492187 1.390625-.1875.449219-.398438.890625-.628907 1.320312-.230468.4375-.480468.859376-.75 1.269532-.269531.402344-.570312.800781-.882812 1.183594-.308594.378906-.636719.75-.988281 1.089843-.339844.347657-.710938.6875-1.089844 1-.382813.308594-.78125.601563-1.191406.871094-.398438.269531-.828125.519531-1.257813.75-.433594.226563-.882812.4375-1.332031.628906-.449219.191407-.910156.351563-1.382813.5-.46875.140625-.949218.261719-1.417968.359375-.480469.089844-.972656.171875-1.460938.222656-.492187.050782-.980468.066407-1.472656.066407zm0 0" fill="#c2c0e2"/><path d="m232.414062 69.417969c0 3.953125-1.597656 7.8125-4.402343 10.605469-.339844.347656-.707031.679687-1.089844.988281-.199219.160156-.398437.320312-.597656.472656-.203125.140625-.390625.277344-.589844.410156-.402344.269531-.832031.519531-1.261719.75-.429687.230469-.871094.441407-1.320312.628907-.460938.179687-.921875.351562-1.390625.492187-.460938.148437-.941407.269531-1.421875.359375-.480469.097656-.96875.167969-1.460938.21875-.488281.050781-.980468.082031-1.46875.082031-3.953125 0-7.824218-1.601562-10.617187-4.402343-2.789063-2.78125-4.390625-6.652344-4.390625-10.605469 0-.488281.03125-.988281.070312-1.480469.050782-.480469.128906-.96875.21875-1.449219.101563-.480469.222656-.960937.363282-1.429687.148437-.460938.308593-.933594.5-1.382813.1875-.449219.398437-.898437.628906-1.332031.21875-.429688.480468-.847656.75-1.257812.269531-.410157.5625-.800782.871094-1.179688.308593-.382812.648437-.753906.988281-1.101562 3.144531-3.140626 7.644531-4.761719 12.085937-4.324219.492188.050781.980469.132812 1.460938.222656.480468.097656.960937.21875 1.421875.359375.46875.140625.929687.308594 1.390625.5.449218.179688.890625.390625 1.320312.621094.429688.230468.859375.488281 1.261719.757812.199219.132813.386719.273438.589844.414063.199219.148437.398437.296875.597656.457031.382813.3125.75.652344 1.089844.992188.351562.347656.683593.71875 1.003906 1.101562.296875.378906.597656.769531.867187 1.179688.273438.410156.523438.828124.75 1.257812.230469.433594.441407.882812.632813 1.332031.1875.449219.347656.921875.488281 1.382813.152344.46875.269532.949218.359375 1.429687.101563.480469.183594.96875.222657 1.449219.050781.492188.078124.992188.078124 1.480469zm0 0" fill="#e6e4f9"/><path d="m238.859375 188.976562-1.652344 4.421876c-1.859375 4.964843-6.023437 8.484374-10.882812 9.726562-1.25.308594-2.542969.476562-3.851563.476562-1.191406 0-2.402344-.136718-3.601562-.417968l-.761719-.179688-110.003906-38.476562c-4.164063-1.378906-7.632813-4.5-9.433594-8.535156-1.980469-4.441407-1.773437-9.632813.546875-13.902344l.703125-1.28125 46.257813-55.804688c2.121093-2.761718 5.140624-4.78125 8.542968-5.652344 4.191406-1.078124 8.683594-.371093 12.347656 1.941407l47.597657 30.152343c4.011719 2.542969 6.542969 6.714844 7.144531 11.203126l4.511719 17.558593zm0 0" fill="#e6e4f9"/><path d="m452.644531 337.136719v155.664062c0 10.585938-8.613281 19.199219-19.195312 19.199219h-414.25c-10.585938 0-19.199219-8.613281-19.199219-19.199219v-155.664062c0-10.59375 8.613281-19.207031 19.199219-19.207031h414.25c10.582031 0 19.195312 8.613281 19.195312 19.207031zm0 0" fill="#ffb14a"/><path d="m452.644531 337.136719v155.664062c0 10.585938-8.613281 19.199219-19.195312 19.199219h-207.125v-194.070312h207.125c10.582031 0 19.195312 8.613281 19.195312 19.207031zm0 0" fill="#ff8b00"/><path d="m43.308594 385.347656c0-2.792968 1.929687-5.226562 5.789062-7.296875 3.859375-2.070312 7.636719-3.105469 11.328125-3.105469 3.914063 0 6.320313 1.339844 7.214844 4.027344l14.9375 42.625 10.742187-36.082031c1.007813-3.355469 3.859376-5.035156 8.558594-5.035156 4.699219 0 7.554688 1.679687 8.558594 5.035156l10.742188 36.082031 14.9375-42.625c.894531-2.6875 3.242187-4.027344 7.046874-4.027344 3.691407 0 7.46875 1.0625 11.328126 3.1875 3.859374 2.125 5.792968 4.644532 5.792968 7.550782 0 1.234375-.226562 2.296875-.671875 3.191406l-25.847656 64.613281c-1.230469 3.019531-4.589844 4.53125-10.070313 4.53125-6.039062 0-9.621093-1.511719-10.738281-4.53125l-11.078125-29.203125-11.074218 29.203125c-1.121094 3.019531-4.757813 4.53125-10.910157 4.53125-5.367187 0-8.671875-1.511719-9.902343-4.53125l-25.84375-64.613281c-.5625-1.453125-.839844-2.628906-.839844-3.527344zm0 0" fill="#fff"/><path d="m279.023438 378.136719c-3.859376-2.132813-7.640626-3.191407-11.332032-3.191407-3.804687 0-6.152344 1.339844-7.042968 4.03125l-14.9375 42.625-10.746094-36.082031c-1.007813-3.363281-3.859375-5.035156-8.5625-5.035156h-.078125c-4.644531.023437-7.484375 1.691406-8.476563 5.035156l-10.742187 36.082031-14.9375-42.625c-.898438-2.691406-3.300781-4.03125-7.210938-4.03125-3.691406 0-7.472656 1.039063-11.335937 3.101563-3.851563 2.070313-5.78125 4.511719-5.78125 7.300781 0 .902344.269531 2.070313.828125 3.523438l25.851562 64.613281c1.230469 3.023437 4.53125 4.535156 9.90625 4.535156 6.152344 0 9.78125-1.511719 10.902344-4.535156l10.996094-28.992187.078125-.207032 11.085937 29.199219c1.109375 3.023437 4.691407 4.535156 10.734375 4.535156 5.480469 0 8.84375-1.511719 10.074219-4.535156l25.839844-64.613281c.449219-.890625.671875-1.953125.671875-3.183594 0-2.910156-1.933594-5.429688-5.785156-7.550781zm0 0" fill="#fff"/><path d="m292.363281 385.347656c0-2.792968 1.929688-5.226562 5.789063-7.296875 3.859375-2.070312 7.636718-3.105469 11.328125-3.105469 3.914062 0 6.316406 1.339844 7.214843 4.027344l14.9375 42.625 10.742188-36.082031c1.003906-3.355469 3.859375-5.035156 8.558594-5.035156 4.699218 0 7.550781 1.679687 8.558594 5.035156l10.742187 36.082031 14.9375-42.625c.894531-2.6875 3.242187-4.027344 7.046875-4.027344 3.691406 0 7.46875 1.0625 11.328125 3.1875s5.792969 4.644532 5.792969 7.550782c0 1.234375-.226563 2.296875-.675782 3.191406l-25.84375 64.613281c-1.230468 3.019531-4.589843 4.53125-10.070312 4.53125-6.039062 0-9.621094-1.511719-10.738281-4.53125l-11.078125-29.203125-11.074219 29.203125c-1.121094 3.019531-4.757813 4.53125-10.910156 4.53125-5.371094 0-8.671875-1.511719-9.902344-4.53125l-25.84375-64.613281c-.5625-1.453125-.839844-2.628906-.839844-3.527344zm0 0" fill="#ffe8cc"/><path d="m284.808594 385.6875c0 1.230469-.222656 2.292969-.671875 3.183594l-25.839844 64.613281c-1.230469 3.023437-4.59375 4.535156-10.074219 4.535156-6.042968 0-9.625-1.511719-10.734375-4.535156l-11.085937-29.199219-.078125.207032v-44.007813h.078125c4.703125 0 7.554687 1.671875 8.5625 5.035156l10.746094 36.082031 14.9375-42.625c.890624-2.691406 3.238281-4.03125 7.042968-4.03125 3.691406 0 7.472656 1.058594 11.332032 3.191407 3.851562 2.121093 5.785156 4.640625 5.785156 7.550781zm0 0" fill="#ffe8cc"/><g fill="#c2c0e2"><path d="m226.921875 81.011719c-.199219.160156-.398437.320312-.597656.472656v-24.128906c.199219.148437.398437.296875.597656.457031.382813.3125.75.652344 1.089844.992188.351562.347656.683593.71875 1.003906 1.101562.296875.378906.597656.769531.867187 1.179688.273438.410156.523438.828124.75 1.257812.230469.433594.441407.882812.632813 1.332031.1875.449219.347656.921875.488281 1.382813.152344.46875.269532.949218.359375 1.429687.101563.480469.183594.96875.222657 1.449219.050781.492188.078124.992188.078124 1.480469 0 3.953125-1.597656 7.8125-4.402343 10.605469-.339844.347656-.707031.679687-1.089844.988281zm0 0"/><path d="m226.324219 203.125v-62.917969l12.535156 48.769531-1.652344 4.421876c-1.859375 4.964843-6.023437 8.484374-10.882812 9.726562zm0 0"/></g></svg>